<?xml version="1.0" encoding="utf-8"?>
<!-- Generator: Adobe Illustrator 19.2.1, SVG Export Plug-In . SVG Version: 6.00 Build 0)  -->
<!DOCTYPE svg PUBLIC "-//W3C//DTD SVG 1.1//EN" "http://www.w3.org/Graphics/SVG/1.1/DTD/svg11.dtd">
<svg version="1.1" xmlns="http://www.w3.org/2000/svg" xmlns:xlink="http://www.w3.org/1999/xlink" x="0px" y="0px"
	 viewBox="0 0 523.4 305" style="enable-background:new 0 0 523.4 305;" xml:space="preserve">
<style type="text/css">
	.st0{fill:#85D6FD;}
	.st1{fill:#FFFFFF;}
	.st2{fill:none;stroke:#85D6FD;stroke-miterlimit:10;}
	.st3{fill:#3FA9F5;}
	.st4{fill:none;stroke:#000000;stroke-width:3;stroke-miterlimit:10;}
	.st5{fill:none;stroke:#85D6FD;stroke-width:15;stroke-miterlimit:10;}
	.st6{fill:none;stroke:#85D6FD;stroke-width:3;stroke-miterlimit:10;}
</style>
<g id="Grid">
</g>
<g id="Footer">
</g>
<g id="Main">
	<g>
		<path class="st0" d="M19.2,153.1C19.2,62.2,55.8,16.8,129,16.8c73.2,0,109.8,45.4,109.8,136.2c0,90.8-36.6,136.2-109.8,136.2
			C55.8,289.3,19.2,243.9,19.2,153.1z M160.9,216.4c6.5-12.8,9.8-33.9,9.8-63.3c0-29.4-3.3-50.5-9.8-63.3
			c-6.5-12.8-17.2-19.2-31.9-19.2c-14.7,0-25.3,6.4-31.9,19.2c-6.5,12.8-9.8,33.9-9.8,63.3c0,29.4,3.3,50.5,9.8,63.3
			c6.5,12.8,17.2,19.2,31.9,19.2C143.7,235.6,154.3,229.2,160.9,216.4z"/>
		<path class="st0" d="M282.1,241.2c44.6-27.8,76.9-52.4,96.8-73.9c19.9-21.5,29.9-41.7,29.9-60.7c0-10.7-3.1-19.3-9.2-25.8
			c-6.1-6.5-15-9.8-26.4-9.8c-12.6,0-22.4,4.6-29.5,13.8c-7.1,9.2-10.8,22.6-11,40.3l-58.9-18c0.5-28.6,10.3-50.8,29.5-66.5
			c19.1-15.8,43.9-23.6,74.3-23.6c22.2,0,40.7,4.1,55.7,12.2c15,8.2,26,18.6,33.3,31.5s10.8,26.6,10.8,41.3
			c0,24.8-9.3,47.7-27.8,68.5c-18.6,20.8-46.7,42.1-84.3,63.7v0.4c17.6-1.1,35.4-1.6,53.3-1.6h62.1v52.5H282.1V241.2z"/>
	</g>
</g>
<g id="Nav">
</g>
</svg>
