<?xml version="1.0" encoding="utf-8"?>
<!-- Generator: Adobe Illustrator 19.2.1, SVG Export Plug-In . SVG Version: 6.00 Build 0)  -->
<!DOCTYPE svg PUBLIC "-//W3C//DTD SVG 1.1//EN" "http://www.w3.org/Graphics/SVG/1.1/DTD/svg11.dtd">
<svg version="1.1" xmlns="http://www.w3.org/2000/svg" xmlns:xlink="http://www.w3.org/1999/xlink" x="0px" y="0px"
	 viewBox="0 0 523.4 305" style="enable-background:new 0 0 523.4 305;" xml:space="preserve">
<style type="text/css">
	.st0{fill:#85D6FD;}
	.st1{fill:#FFFFFF;}
	.st2{fill:none;stroke:#85D6FD;stroke-miterlimit:10;}
	.st3{fill:#3FA9F5;}
	.st4{fill:none;stroke:#000000;stroke-width:3;stroke-miterlimit:10;}
	.st5{fill:none;stroke:#85D6FD;stroke-width:15;stroke-miterlimit:10;}
	.st6{fill:none;stroke:#85D6FD;stroke-width:3;stroke-miterlimit:10;}
</style>
<g id="Grid">
</g>
<g id="Footer">
</g>
<g id="Main">
	<g>
		<path class="st0" d="M19.2,153.1C19.2,62.2,55.8,16.8,129,16.8c73.2,0,109.8,45.4,109.8,136.2c0,90.8-36.6,136.2-109.8,136.2
			C55.8,289.3,19.2,243.9,19.2,153.1z M160.9,216.4c6.5-12.8,9.8-33.9,9.8-63.3c0-29.4-3.3-50.5-9.8-63.3
			c-6.5-12.8-17.2-19.2-31.9-19.2c-14.7,0-25.3,6.4-31.9,19.2c-6.5,12.8-9.8,33.9-9.8,63.3c0,29.4,3.3,50.5,9.8,63.3
			c6.5,12.8,17.2,19.2,31.9,19.2C143.7,235.6,154.3,229.2,160.9,216.4z"/>
		<path class="st0" d="M505.7,227.2h-40.5v58.1h-60.9v-58.1h-133v-32.5L384.7,20.8h80.5v159.1h40.5V227.2z M335.4,179.9h68.9v-70.5
			l1.6-43.3h-0.8c-4.8,12-12.6,26.4-23.2,43.3L335.4,179.9z"/>
	</g>
</g>
<g id="Nav">
</g>
</svg>
