<?xml version="1.0" encoding="utf-8"?>
<!-- Generator: Adobe Illustrator 19.2.1, SVG Export Plug-In . SVG Version: 6.00 Build 0)  -->
<!DOCTYPE svg PUBLIC "-//W3C//DTD SVG 1.1//EN" "http://www.w3.org/Graphics/SVG/1.1/DTD/svg11.dtd">
<svg version="1.1" xmlns="http://www.w3.org/2000/svg" xmlns:xlink="http://www.w3.org/1999/xlink" x="0px" y="0px"
	 viewBox="0 0 523.4 305" style="enable-background:new 0 0 523.4 305;" xml:space="preserve">
<style type="text/css">
	.st0{fill:#85D6FD;}
	.st1{fill:#FFFFFF;}
	.st2{fill:none;stroke:#85D6FD;stroke-miterlimit:10;}
	.st3{fill:#3FA9F5;}
	.st4{fill:none;stroke:#000000;stroke-width:3;stroke-miterlimit:10;}
	.st5{fill:none;stroke:#85D6FD;stroke-width:15;stroke-miterlimit:10;}
	.st6{fill:none;stroke:#85D6FD;stroke-width:3;stroke-miterlimit:10;}
</style>
<g id="Grid">
</g>
<g id="Footer">
</g>
<g id="Main">
	<g>
		<path class="st0" d="M19.2,153.1C19.2,62.2,55.8,16.8,129,16.8c73.2,0,109.8,45.4,109.8,136.2c0,90.8-36.6,136.2-109.8,136.2
			C55.8,289.3,19.2,243.9,19.2,153.1z M160.9,216.4c6.5-12.8,9.8-33.9,9.8-63.3c0-29.4-3.3-50.5-9.8-63.3
			c-6.5-12.8-17.2-19.2-31.9-19.2c-14.7,0-25.3,6.4-31.9,19.2c-6.5,12.8-9.8,33.9-9.8,63.3c0,29.4,3.3,50.5,9.8,63.3
			c6.5,12.8,17.2,19.2,31.9,19.2C143.7,235.6,154.3,229.2,160.9,216.4z"/>
		<path class="st0" d="M437.8,124.8c12.4,6.8,22,16.3,28.7,28.5c6.7,12.2,10,26,10,41.5c0,20.8-4.5,38.3-13.6,52.5
			c-9.1,14.2-21.4,24.7-36.9,31.7c-15.5,6.9-33,10.4-52.5,10.4c-24,0-44.5-4.1-61.3-12.4c-16.8-8.3-30.9-21.8-42.1-40.5l60.5-34.5
			c2.7,11.8,7.2,20.6,13.6,26.4c6.4,5.9,16.3,8.8,29.7,8.8c12.6,0,22.4-3.2,29.7-9.6c7.2-6.4,10.8-15.8,10.8-28
			c-0.3-12-3.7-21.2-10.4-27.6c-6.7-6.4-16.7-9.6-30.1-9.6c-19.2,0-33.3,5.2-42.1,15.6l-52.1-7.6l16.8-149.5h165.1v53.3h-115
			l-6,49.7c-0.8,4.5-1.5,7.8-2,9.6h0.4c5.3-5.9,12.8-10.5,22.4-13.8c9.6-3.3,20.3-5,32.1-5C410.6,114.6,425.4,118,437.8,124.8z"/>
	</g>
</g>
<g id="Nav">
</g>
</svg>
