<?xml version="1.0" encoding="utf-8"?>
<!-- Generator: Adobe Illustrator 19.2.1, SVG Export Plug-In . SVG Version: 6.00 Build 0)  -->
<!DOCTYPE svg PUBLIC "-//W3C//DTD SVG 1.1//EN" "http://www.w3.org/Graphics/SVG/1.1/DTD/svg11.dtd">
<svg version="1.1" xmlns="http://www.w3.org/2000/svg" xmlns:xlink="http://www.w3.org/1999/xlink" x="0px" y="0px"
	 viewBox="0 0 523.4 305" style="enable-background:new 0 0 523.4 305;" xml:space="preserve">
<style type="text/css">
	.st0{fill:#85D6FD;}
	.st1{fill:#FFFFFF;}
	.st2{fill:none;stroke:#85D6FD;stroke-miterlimit:10;}
	.st3{fill:#3FA9F5;}
	.st4{fill:none;stroke:#000000;stroke-width:3;stroke-miterlimit:10;}
	.st5{fill:none;stroke:#85D6FD;stroke-width:15;stroke-miterlimit:10;}
	.st6{fill:none;stroke:#85D6FD;stroke-width:3;stroke-miterlimit:10;}
</style>
<g id="Grid">
</g>
<g id="Footer">
</g>
<g id="Main">
	<g>
		<path class="st0" d="M19.2,153.1C19.2,62.2,55.8,16.8,129,16.8c73.2,0,109.8,45.4,109.8,136.2c0,90.8-36.6,136.2-109.8,136.2
			C55.8,289.3,19.2,243.9,19.2,153.1z M160.9,216.4c6.5-12.8,9.8-33.9,9.8-63.3c0-29.4-3.3-50.5-9.8-63.3
			c-6.5-12.8-17.2-19.2-31.9-19.2c-14.7,0-25.3,6.4-31.9,19.2c-6.5,12.8-9.8,33.9-9.8,63.3c0,29.4,3.3,50.5,9.8,63.3
			c6.5,12.8,17.2,19.2,31.9,19.2C143.7,235.6,154.3,229.2,160.9,216.4z"/>
		<path class="st0" d="M486.5,75.3L430,101.8c-5.6-20.3-19-30.5-40.1-30.5c-15,0-27.1,7-36.5,21c-9.4,14-14,32.9-14,56.7v6.4h0.8
			c4.5-11.2,12.4-19.8,23.6-25.8s24.7-9,40.5-9c16.3,0,31,3.4,44.1,10.2c13.1,6.8,23.3,16.4,30.7,28.9c7.3,12.4,11,26.8,11,43.1
			c0,26.7-9,47.8-26.8,63.3c-17.9,15.5-42.9,23.2-74.9,23.2c-35.5,0-62.8-11.6-81.7-34.9c-19-23.2-28.5-57-28.5-101.4
			c0-30.2,5-55.5,15-75.9c10-20.4,23.7-35.6,41.1-45.5c17.4-9.9,37.4-14.8,60.1-14.8C442.4,16.8,473.1,36.3,486.5,75.3z M362,176.5
			c-6.8,6.3-10.2,14.9-10.2,25.8c0,11,3.4,19.6,10.2,25.8c6.8,6.3,16,9.4,27.4,9.4c12,0,21.3-3.1,27.8-9.2c6.5-6.1,9.8-14.8,9.8-26
			c0-11.2-3.3-19.9-9.8-26c-6.5-6.1-15.8-9.2-27.8-9.2C378,167.1,368.9,170.2,362,176.5z"/>
	</g>
</g>
<g id="Nav">
</g>
</svg>
