<?xml version="1.0" encoding="utf-8"?>
<!-- Generator: Adobe Illustrator 19.2.1, SVG Export Plug-In . SVG Version: 6.00 Build 0)  -->
<!DOCTYPE svg PUBLIC "-//W3C//DTD SVG 1.1//EN" "http://www.w3.org/Graphics/SVG/1.1/DTD/svg11.dtd">
<svg version="1.1" xmlns="http://www.w3.org/2000/svg" xmlns:xlink="http://www.w3.org/1999/xlink" x="0px" y="0px"
	 viewBox="0 0 523.4 305" style="enable-background:new 0 0 523.4 305;" xml:space="preserve">
<style type="text/css">
	.st0{fill:#85D6FD;}
	.st1{fill:#FFFFFF;}
	.st2{fill:none;stroke:#85D6FD;stroke-miterlimit:10;}
	.st3{fill:#3FA9F5;}
	.st4{fill:none;stroke:#000000;stroke-width:3;stroke-miterlimit:10;}
	.st5{fill:none;stroke:#85D6FD;stroke-width:15;stroke-miterlimit:10;}
	.st6{fill:none;stroke:#85D6FD;stroke-width:3;stroke-miterlimit:10;}
</style>
<g id="Grid">
</g>
<g id="Footer">
</g>
<g id="Main">
	<g>
		<path class="st0" d="M19.2,153.1C19.2,62.2,55.8,16.8,129,16.8c73.2,0,109.8,45.4,109.8,136.2c0,90.8-36.6,136.2-109.8,136.2
			C55.8,289.3,19.2,243.9,19.2,153.1z M160.9,216.4c6.5-12.8,9.8-33.9,9.8-63.3c0-29.4-3.3-50.5-9.8-63.3
			c-6.5-12.8-17.2-19.2-31.9-19.2c-14.7,0-25.3,6.4-31.9,19.2c-6.5,12.8-9.8,33.9-9.8,63.3c0,29.4,3.3,50.5,9.8,63.3
			c6.5,12.8,17.2,19.2,31.9,19.2C143.7,235.6,154.3,229.2,160.9,216.4z"/>
		<path class="st0" d="M456.2,37.5c17.8,13.2,26.6,31.3,26.6,54.3c0,13.6-3.7,25.4-11,35.5c-7.4,10-17.7,17.6-31.1,22.6v0.4
			c16.3,5.3,28.8,13.5,37.5,24.4c8.7,11,13,24.4,13,40.5c0,23-9.6,41.1-28.7,54.3c-19.1,13.2-45.5,19.8-79.1,19.8
			c-33.1,0-59.3-6.6-78.5-19.8c-19.2-13.2-28.9-31.3-28.9-54.3c0-16,4.3-29.5,13-40.5c8.7-11,21.2-19.1,37.5-24.4v-0.4
			c-13.4-5.1-23.7-12.6-31.1-22.6c-7.4-10-11-21.8-11-35.5c0-23,8.9-41.1,26.6-54.3c17.8-13.2,41.9-19.8,72.3-19.8
			C414.2,17.6,438.4,24.2,456.2,37.5z M413.5,230.4c7.2-5.9,10.8-13.9,10.8-24c0-10.4-3.6-18.5-10.8-24.2
			c-7.2-5.7-17.2-8.6-30.1-8.6c-12.6,0-22.4,2.9-29.7,8.6c-7.2,5.7-10.8,13.8-10.8,24.2c0,10.2,3.6,18.2,10.8,24
			c7.2,5.9,17.1,8.8,29.7,8.8C396.3,239.2,406.3,236.3,413.5,230.4z M357.8,75.7c-6.1,5.3-9.2,12.8-9.2,22.4
			c0,9.4,3.1,16.8,9.4,22.2c6.3,5.5,14.8,8.2,25.4,8.2c11,0,19.6-2.7,25.8-8.2c6.3-5.5,9.4-12.9,9.4-22.2c0-9.6-3.1-17.1-9.4-22.4
			c-6.3-5.3-14.9-8-25.8-8C372.5,67.7,364,70.4,357.8,75.7z"/>
	</g>
</g>
<g id="Nav">
</g>
</svg>
