<?xml version="1.0" encoding="utf-8"?>
<!-- Generator: Adobe Illustrator 19.2.1, SVG Export Plug-In . SVG Version: 6.00 Build 0)  -->
<!DOCTYPE svg PUBLIC "-//W3C//DTD SVG 1.1//EN" "http://www.w3.org/Graphics/SVG/1.1/DTD/svg11.dtd">
<svg version="1.1" xmlns="http://www.w3.org/2000/svg" xmlns:xlink="http://www.w3.org/1999/xlink" x="0px" y="0px"
	 viewBox="0 0 523.4 305" style="enable-background:new 0 0 523.4 305;" xml:space="preserve">
<style type="text/css">
	.st0{fill:#85D6FD;}
	.st1{fill:#FFFFFF;}
	.st2{fill:none;stroke:#85D6FD;stroke-miterlimit:10;}
	.st3{fill:#3FA9F5;}
	.st4{fill:none;stroke:#000000;stroke-width:3;stroke-miterlimit:10;}
	.st5{fill:none;stroke:#85D6FD;stroke-width:15;stroke-miterlimit:10;}
	.st6{fill:none;stroke:#85D6FD;stroke-width:3;stroke-miterlimit:10;}
</style>
<g id="Grid">
</g>
<g id="Footer">
</g>
<g id="Main">
	<g>
		<path class="st0" d="M19.2,153.1C19.2,62.2,55.8,16.8,129,16.8c73.2,0,109.8,45.4,109.8,136.2c0,90.8-36.6,136.2-109.8,136.2
			C55.8,289.3,19.2,243.9,19.2,153.1z M160.9,216.4c6.5-12.8,9.8-33.9,9.8-63.3c0-29.4-3.3-50.5-9.8-63.3
			c-6.5-12.8-17.2-19.2-31.9-19.2c-14.7,0-25.3,6.4-31.9,19.2c-6.5,12.8-9.8,33.9-9.8,63.3c0,29.4,3.3,50.5,9.8,63.3
			c6.5,12.8,17.2,19.2,31.9,19.2C143.7,235.6,154.3,229.2,160.9,216.4z"/>
		<path class="st0" d="M458.6,52.1c18.8,23.5,28.2,57.7,28.2,102.6c0,46-9.7,79.9-29.1,101.8c-19.4,21.9-47.1,32.9-83.1,32.9
			c-24.3,0-44.5-4.7-60.7-14c-16.2-9.3-28.2-23.9-36.3-43.7l61.7-24.4c2.4,9.9,6.3,17.4,11.8,22.4c5.5,5.1,13.7,7.6,24.6,7.6
			c32.6,0,48.9-25,48.9-74.9v-6.4h-1.2c-3.5,11.2-11.1,19.8-22.8,25.8c-11.8,6-25.2,9-40.5,9c-15.8,0-30.2-3.5-43.3-10.4
			c-13.1-6.9-23.4-16.8-31.1-29.7s-11.4-27.5-11.4-44.1c0-28,9-50,27-65.9c18-15.9,43.3-23.8,75.9-23.8
			C412.7,16.8,439.8,28.6,458.6,52.1z M347.6,80.1c-6.5,6.1-9.8,14.8-9.8,26c0,11.2,3.3,19.9,9.8,26c6.5,6.1,15.8,9.2,27.8,9.2
			c11.8,0,21-3.1,27.6-9.4c6.7-6.3,10-14.9,10-25.8c0-11-3.3-19.6-10-25.8c-6.7-6.3-15.9-9.4-27.6-9.4
			C363.4,70.9,354.2,74,347.6,80.1z"/>
	</g>
</g>
<g id="Nav">
</g>
</svg>
