<?xml version="1.0" encoding="utf-8"?>
<!-- Generator: Adobe Illustrator 19.2.1, SVG Export Plug-In . SVG Version: 6.00 Build 0)  -->
<!DOCTYPE svg PUBLIC "-//W3C//DTD SVG 1.1//EN" "http://www.w3.org/Graphics/SVG/1.1/DTD/svg11.dtd">
<svg version="1.1" xmlns="http://www.w3.org/2000/svg" xmlns:xlink="http://www.w3.org/1999/xlink" x="0px" y="0px"
	 viewBox="0 0 523.4 305" style="enable-background:new 0 0 523.4 305;" xml:space="preserve">
<style type="text/css">
	.st0{fill:#85D6FD;}
	.st1{fill:#FFFFFF;}
	.st2{fill:none;stroke:#85D6FD;stroke-miterlimit:10;}
	.st3{fill:#3FA9F5;}
	.st4{fill:none;stroke:#000000;stroke-width:3;stroke-miterlimit:10;}
	.st5{fill:none;stroke:#85D6FD;stroke-width:15;stroke-miterlimit:10;}
	.st6{fill:none;stroke:#85D6FD;stroke-width:3;stroke-miterlimit:10;}
</style>
<g id="Grid">
</g>
<g id="Footer">
</g>
<g id="Main">
	<g>
		<path class="st0" d="M146.3,20.8v264.5H79.7V88.6c-20.6,18.7-41.4,29.9-62.5,33.7l-6.4-56.9c13.6-1.6,28.8-7,45.5-16.2
			C73,39.9,84.7,30.5,91.4,20.8H146.3z"/>
		<path class="st0" d="M365,36.9c16.6,13.4,24.8,31.4,24.8,54.1c0,13.6-2.9,25-8.6,34.3c-5.7,9.2-12.6,16-20.4,20.2
			c-7.9,4.3-14.8,6.4-20.6,6.4v1.2c7.5,0,15.4,1.9,23.8,5.8c8.4,3.9,15.7,10.3,21.8,19.2c6.1,9,9.2,20.6,9.2,35.1
			c0,15-4.4,28.2-13.2,39.7c-8.8,11.5-21,20.4-36.5,26.8c-15.5,6.4-33.1,9.6-52.9,9.6c-28.3,0-51-5.2-67.9-15.6
			c-17-10.4-29.1-27.1-36.3-50.1l62.5-26.8c1.3,13.9,5.4,23.9,12.2,30.1c6.8,6.1,16.4,9.2,28.7,9.2c11.5,0,20.5-2.7,27-8.2
			c6.5-5.5,9.8-13.2,9.8-23c0-10.4-3.1-17.9-9.4-22.4c-6.3-4.5-16.2-6.8-29.9-6.8h-14.8v-43.7h11.6c12.8,0,22.2-2.6,28-7.8
			c5.9-5.2,8.8-13.2,8.8-23.8c0-9.6-2.7-17-8.2-22.2c-5.5-5.2-13.2-7.8-23-7.8c-22.4,0-34.7,11.9-36.9,35.7l-60.5-20.4
			c4.3-23.5,15.4-40.8,33.5-51.9c18-11.1,40.7-16.6,67.9-16.6C325.4,16.8,348.5,23.5,365,36.9z"/>
	</g>
</g>
<g id="Nav">
</g>
</svg>
