<?xml version="1.0" encoding="utf-8"?>
<!-- Generator: Adobe Illustrator 19.2.1, SVG Export Plug-In . SVG Version: 6.00 Build 0)  -->
<!DOCTYPE svg PUBLIC "-//W3C//DTD SVG 1.1//EN" "http://www.w3.org/Graphics/SVG/1.1/DTD/svg11.dtd">
<svg version="1.1" xmlns="http://www.w3.org/2000/svg" xmlns:xlink="http://www.w3.org/1999/xlink" x="0px" y="0px"
	 viewBox="0 0 523.4 305" style="enable-background:new 0 0 523.4 305;" xml:space="preserve">
<style type="text/css">
	.st0{fill:#85D6FD;}
	.st1{fill:#FFFFFF;}
	.st2{fill:none;stroke:#85D6FD;stroke-miterlimit:10;}
	.st3{fill:#3FA9F5;}
	.st4{fill:none;stroke:#000000;stroke-width:3;stroke-miterlimit:10;}
	.st5{fill:none;stroke:#85D6FD;stroke-width:15;stroke-miterlimit:10;}
	.st6{fill:none;stroke:#85D6FD;stroke-width:3;stroke-miterlimit:10;}
</style>
<g id="Grid">
</g>
<g id="Footer">
</g>
<g id="Main">
	<g>
		<path class="st0" d="M146.3,20.8v264.5H79.7V88.6c-20.6,18.7-41.4,29.9-62.5,33.7l-6.4-56.9c13.6-1.6,28.8-7,45.5-16.2
			C73,39.9,84.7,30.5,91.4,20.8H146.3z"/>
		<path class="st0" d="M355.6,124.8c12.4,6.8,22,16.3,28.7,28.5c6.7,12.2,10,26,10,41.5c0,20.8-4.5,38.3-13.6,52.5
			c-9.1,14.2-21.4,24.7-36.9,31.7c-15.5,6.9-33,10.4-52.5,10.4c-24,0-44.5-4.1-61.3-12.4c-16.8-8.3-30.9-21.8-42.1-40.5l60.5-34.5
			c2.7,11.8,7.2,20.6,13.6,26.4c6.4,5.9,16.3,8.8,29.7,8.8c12.6,0,22.4-3.2,29.7-9.6c7.2-6.4,10.8-15.8,10.8-28
			c-0.3-12-3.7-21.2-10.4-27.6c-6.7-6.4-16.7-9.6-30.1-9.6c-19.2,0-33.3,5.2-42.1,15.6l-52.1-7.6l16.8-149.5h165.1v53.3h-115
			l-6,49.7c-0.8,4.5-1.5,7.8-2,9.6h0.4c5.3-5.9,12.8-10.5,22.4-13.8c9.6-3.3,20.3-5,32.1-5C328.4,114.6,343.2,118,355.6,124.8z"/>
	</g>
</g>
<g id="Nav">
</g>
</svg>
