<?xml version="1.0" encoding="utf-8"?>
<!-- Generator: Adobe Illustrator 19.2.1, SVG Export Plug-In . SVG Version: 6.00 Build 0)  -->
<!DOCTYPE svg PUBLIC "-//W3C//DTD SVG 1.1//EN" "http://www.w3.org/Graphics/SVG/1.1/DTD/svg11.dtd">
<svg version="1.1" xmlns="http://www.w3.org/2000/svg" xmlns:xlink="http://www.w3.org/1999/xlink" x="0px" y="0px"
	 viewBox="0 0 523.4 305" style="enable-background:new 0 0 523.4 305;" xml:space="preserve">
<style type="text/css">
	.st0{fill:#85D6FD;}
	.st1{fill:#FFFFFF;}
	.st2{fill:none;stroke:#85D6FD;stroke-miterlimit:10;}
	.st3{fill:#3FA9F5;}
	.st4{fill:none;stroke:#000000;stroke-width:3;stroke-miterlimit:10;}
	.st5{fill:none;stroke:#85D6FD;stroke-width:15;stroke-miterlimit:10;}
	.st6{fill:none;stroke:#85D6FD;stroke-width:3;stroke-miterlimit:10;}
</style>
<g id="Grid">
</g>
<g id="Footer">
</g>
<g id="Main">
	<g>
		<path class="st0" d="M146.3,20.8v264.5H79.7V88.6c-20.6,18.7-41.4,29.9-62.5,33.7l-6.4-56.9c13.6-1.6,28.8-7,45.5-16.2
			C73,39.9,84.7,30.5,91.4,20.8H146.3z"/>
		<path class="st0" d="M376.5,52.1c18.8,23.5,28.2,57.7,28.2,102.6c0,46-9.7,79.9-29.1,101.8c-19.4,21.9-47.1,32.9-83.1,32.9
			c-24.3,0-44.5-4.7-60.7-14c-16.2-9.3-28.2-23.9-36.3-43.7l61.7-24.4c2.4,9.9,6.3,17.4,11.8,22.4c5.5,5.1,13.7,7.6,24.6,7.6
			c32.6,0,48.9-25,48.9-74.9v-6.4h-1.2c-3.5,11.2-11.1,19.8-22.8,25.8c-11.8,6-25.2,9-40.5,9c-15.8,0-30.2-3.5-43.3-10.4
			c-13.1-6.9-23.4-16.8-31.1-29.7s-11.4-27.5-11.4-44.1c0-28,9-50,27-65.9c18-15.9,43.3-23.8,75.9-23.8
			C330.6,16.8,357.6,28.6,376.5,52.1z M265.5,80.1c-6.5,6.1-9.8,14.8-9.8,26c0,11.2,3.3,19.9,9.8,26c6.5,6.1,15.8,9.2,27.8,9.2
			c11.8,0,21-3.1,27.6-9.4c6.7-6.3,10-14.9,10-25.8c0-11-3.3-19.6-10-25.8c-6.7-6.3-15.9-9.4-27.6-9.4C281.3,70.9,272,74,265.5,80.1
			z"/>
	</g>
</g>
<g id="Nav">
</g>
</svg>
